<?xml version="1.0" encoding="UTF-8" standalone="no"?>
<!-- Created with Inkscape (http://www.inkscape.org/) -->

<svg
   width="542.21033"
   height="391.01422"
   viewBox="0 0 143.45981 103.45585"
   version="1.1"
   id="svg5"
   inkscape:version="1.1.2 (0a00cf5339, 2022-02-04)"
   sodipodi:docname="2023-02-24_LogoReinwiese_Tobi_1-0-0_web.svg"
   inkscape:export-filename="/run/timeshift/backup/01_Projekte/22_Bauernhof/02_CorporateDesign/2022-09-02_LogoReinwiese_0-1-0.png"
   inkscape:export-xdpi="96"
   inkscape:export-ydpi="96"
   xmlns:inkscape="http://www.inkscape.org/namespaces/inkscape"
   xmlns:sodipodi="http://sodipodi.sourceforge.net/DTD/sodipodi-0.dtd"
   xmlns="http://www.w3.org/2000/svg"
   xmlns:svg="http://www.w3.org/2000/svg">
  <sodipodi:namedview
     id="namedview7"
     pagecolor="#ffffff"
     bordercolor="#666666"
     borderopacity="1.0"
     inkscape:pageshadow="2"
     inkscape:pageopacity="1"
     inkscape:pagecheckerboard="0"
     inkscape:document-units="px"
     showgrid="false"
     inkscape:zoom="1.5208438"
     inkscape:cx="308.7102"
     inkscape:cy="226.51899"
     inkscape:window-width="1920"
     inkscape:window-height="1009"
     inkscape:window-x="0"
     inkscape:window-y="0"
     inkscape:window-maximized="1"
     inkscape:current-layer="layer3"
     units="px"
     width="500px"
     fit-margin-left="20"
     fit-margin-right="20"
     fit-margin-top="20"
     fit-margin-bottom="20" />
  <defs
     id="defs2" />
  <g
     inkscape:groupmode="layer"
     id="layer3"
     inkscape:label="Baum neu"
     style="display:inline"
     transform="translate(-25.952896,-84.696002)">
    <path
       style="display:inline;fill:#52a230;fill-opacity:1;stroke:#000000;stroke-width:0.3;stroke-linecap:round;stroke-linejoin:round;stroke-miterlimit:4;stroke-dasharray:none;stroke-opacity:1"
       d="m 103.25164,128.06671 c -0.92405,-0.90681 -5.48587,-0.90825 -5.55242,3.71566 -0.0213,1.47797 -0.0615,2.21215 -0.45308,2.82687 0.52352,-0.71457 1.76485,-1.08901 3.35316,-1.36323 3.23492,-0.55851 3.91835,-3.93689 2.65234,-5.1793 z"
       id="path44369"
       sodipodi:nodetypes="sscss" />
    <path
       style="display:inline;fill:#52a230;fill-opacity:1;stroke:#000000;stroke-width:0.252272;stroke-linecap:round;stroke-linejoin:round;stroke-miterlimit:4;stroke-dasharray:none;stroke-opacity:1"
       d="m 135.66186,117.86693 c 4.93408,-2.5634 5.62326,0.25816 9.21514,2.86709 -3.52056,2.09395 -8.88035,1.33034 -9.21514,-2.86709 z"
       id="path44371"
       sodipodi:nodetypes="ccc" />
    <path
       style="display:inline;fill:#52a230;fill-opacity:1;stroke:#000000;stroke-width:0.3;stroke-linecap:round;stroke-linejoin:round;stroke-miterlimit:4;stroke-dasharray:none;stroke-opacity:1"
       d="m 109.06545,126.79944 c -3.74849,0.94711 -3.92729,4.08515 -2.14698,5.76224 0.42877,0.40391 1.03368,0.68427 1.37264,1.1009 0.52328,-0.54869 0.96806,-0.49234 1.41427,-0.87454 1.86954,-1.60141 1.15683,-5.10222 -0.63993,-5.9886 z"
       id="path44373"
       sodipodi:nodetypes="cscsc" />
    <path
       style="display:inline;fill:#52a230;fill-opacity:1;stroke:#000000;stroke-width:0.252272;stroke-linecap:round;stroke-linejoin:round;stroke-miterlimit:4;stroke-dasharray:none;stroke-opacity:1"
       d="m 130.25767,105.08364 c 0.49665,-2.28786 3.56068,-2.39501 4.72487,-1.06671 1.06502,1.21516 1.5282,2.06451 2.71555,2.73873 -2.91263,1.82583 -5.96202,2.70266 -7.89999,0.97421 -0.94573,-0.84348 -0.9712,-2.04041 0.45957,-2.64623 z"
       id="path44375"
       sodipodi:nodetypes="cscsc" />
    <path
       style="display:inline;fill:#52a230;fill-opacity:1;stroke:#000000;stroke-width:0.1811;stroke-linecap:round;stroke-linejoin:round;stroke-miterlimit:4;stroke-dasharray:none;stroke-opacity:1"
       d="m 120.83538,118.79273 c 0.47318,0.80834 0.9741,1.65589 1.07531,2.57631 0.0515,0.46814 0.37182,0.92972 1.10001,1.13834 0.47941,0.13734 0.99784,0.13338 1.42892,-0.0954 0.71245,-0.37813 0.63839,-1.23731 0.40177,-1.59931 -0.41446,-0.63407 -2.36121,-1.96078 -4.00601,-2.01992 z"
       id="path44377"
       sodipodi:nodetypes="cssssc" />
    <path
       style="display:inline;fill:#52a230;fill-opacity:1;stroke:#080000;stroke-width:0.252272;stroke-linecap:round;stroke-linejoin:round;stroke-miterlimit:4;stroke-dasharray:none;stroke-opacity:1"
       d="m 127.0783,103.05286 c 2.27782,-0.21848 3.89579,-3.487949 2.97973,-5.458468 -0.37237,-0.800992 -0.44741,-1.604487 -0.3212,-2.439803 -4.54621,2.517839 -4.25049,4.634547 -2.65853,7.898271 z"
       id="path44379"
       sodipodi:nodetypes="cscc" />
    <path
       style="display:inline;fill:#52a230;fill-opacity:1;stroke:#000000;stroke-width:0.252272;stroke-linecap:round;stroke-linejoin:round;stroke-miterlimit:4;stroke-dasharray:none;stroke-opacity:1"
       d="m 89.75735,114.0495 c 0.8676,-0.2937 1.42442,-0.68513 2.82385,-1.95642 0.98826,-0.89776 3.92238,-0.94414 5.19078,1.59333 -1.22057,3.30686 -5.03871,4.41104 -8.01463,0.36309 z"
       id="path44381"
       sodipodi:nodetypes="cscc" />
    <path
       style="display:inline;fill:#52a230;fill-opacity:1;stroke:#000000;stroke-width:0.3;stroke-linecap:round;stroke-linejoin:round;stroke-miterlimit:4;stroke-dasharray:none;stroke-opacity:1"
       d="m 100.55183,126.53795 c -3.52255,2.82179 -6.36268,0.33871 -9.23122,-2.12614 1.61775,-0.11417 2.13939,-0.0442 3.26162,-0.62803 2.53887,-1.32084 5.70226,-0.49015 5.9696,2.75417 z"
       id="path44383"
       sodipodi:nodetypes="ccsc" />
    <path
       style="display:inline;fill:#52a230;fill-opacity:1;stroke:#000000;stroke-width:0.252272;stroke-linecap:round;stroke-linejoin:round;stroke-miterlimit:4;stroke-dasharray:none;stroke-opacity:1"
       d="m 99.81221,98.753709 c 2.82295,-1.519204 6.02246,-0.530589 5.53854,2.974651 -1.97173,1.82898 -3.98116,0.82278 -4.56178,-1.20085 -0.33474,-1.166685 -0.55544,-1.241603 -0.97676,-1.773801 z"
       id="path44385"
       sodipodi:nodetypes="ccsc" />
    <path
       style="display:inline;fill:#52a230;fill-opacity:1;stroke:#000000;stroke-width:0.252272;stroke-linecap:round;stroke-linejoin:round;stroke-miterlimit:4;stroke-dasharray:none;stroke-opacity:1"
       d="m 114.10472,118.01899 c -1.46151,0.38325 -4.53809,4.53415 -1.24013,5.08975 1.03715,-0.0355 3.19353,-0.77913 1.938,-2.96884 -0.38131,-0.66499 -0.51868,-1.41204 -0.69787,-2.12091 z"
       id="path44387"
       sodipodi:nodetypes="ccsc" />
    <path
       style="display:inline;fill:#52a230;fill-opacity:1;stroke:#000000;stroke-width:0.252272;stroke-linecap:round;stroke-linejoin:round;stroke-miterlimit:4;stroke-dasharray:none;stroke-opacity:1"
       d="m 144.00591,114.61603 c -0.093,-0.73114 -5.39319,-3.63801 -6.23706,-0.19331 0.59947,0.0174 1.26018,0.1437 1.80591,0.78352 1.04239,1.22213 2.6044,0.63868 4.43115,-0.59021 z"
       id="path44389"
       sodipodi:nodetypes="ccsc" />
    <path
       style="display:inline;fill:#52a230;fill-opacity:1;stroke:#000000;stroke-width:0.252272;stroke-linecap:round;stroke-linejoin:round;stroke-miterlimit:4;stroke-dasharray:none;stroke-opacity:1"
       d="m 129.5385,112.99576 c -0.27979,-1.01959 -0.54072,-2.03334 -0.48492,-3.00075 0.0802,-1.38988 -1.79446,-2.35797 -3.37858,-1.07611 -1.82006,2.52882 1.21669,5.15734 3.8635,4.07686 z"
       id="path44391"
       sodipodi:nodetypes="cscc" />
    <path
       style="display:inline;fill:#52a230;fill-opacity:1;stroke:#000000;stroke-width:0.252272;stroke-linecap:round;stroke-linejoin:round;stroke-miterlimit:4;stroke-dasharray:none;stroke-opacity:1"
       d="m 138.10509,111.07342 c -0.24362,-2.58787 3.26326,-3.49594 4.78345,-1.87064 -0.42232,0.0826 -0.53832,0.46838 -0.64522,0.91497 -0.48581,2.02934 -1.56236,1.98823 -2.57377,1.43203 -0.52182,-0.28696 -1.02216,-0.46685 -1.56446,-0.47636 z"
       id="path44393"
       sodipodi:nodetypes="ccssc" />
    <path
       style="display:inline;fill:#52a230;fill-opacity:1;stroke:#000000;stroke-width:0.252272;stroke-linecap:round;stroke-linejoin:round;stroke-miterlimit:4;stroke-dasharray:none;stroke-opacity:1"
       d="m 129.64048,128.09821 c 2.16281,-0.0161 5.03649,1.13316 4.22202,4.94353 -0.67573,-0.31111 -1.188,-0.54918 -1.80129,-0.53659 -1.63727,0.0337 -1.88814,-1.01592 -1.97413,-2.66363 -0.0334,-0.63944 -0.0748,-1.23861 -0.4466,-1.74331 z"
       id="path44395"
       sodipodi:nodetypes="ccssc" />
    <path
       style="display:inline;fill:#52a230;fill-opacity:1;stroke:#000000;stroke-width:0.252272;stroke-linecap:round;stroke-linejoin:round;stroke-miterlimit:4;stroke-dasharray:none;stroke-opacity:1"
       d="m 108.70723,120.47895 c 2.00914,0.40861 2.52419,-1.67582 2.70228,-3.20989 0.0731,-0.62938 0.0651,-1.23535 0.60579,-1.74846 -4.4716,-2.2826 -4.9296,3.2209 -3.30807,4.95835 z"
       id="path44397"
       sodipodi:nodetypes="cscc" />
    <path
       style="display:inline;fill:#52a230;fill-opacity:1;stroke:#000000;stroke-width:0.252272;stroke-linecap:round;stroke-linejoin:round;stroke-miterlimit:4;stroke-dasharray:none;stroke-opacity:1"
       d="m 117.90219,90.113795 c 4.52,2.700609 3.33827,6.801776 0.44353,7.338061 -0.95556,-0.307243 -4.01669,-2.459984 -1.1232,-5.667216 0.43295,-0.479902 0.69461,-1.006418 0.67967,-1.670845 z"
       id="path44399"
       sodipodi:nodetypes="ccsc" />
    <path
       style="display:inline;fill:#52a230;fill-opacity:1;stroke:#000000;stroke-width:0.252272;stroke-linecap:round;stroke-linejoin:round;stroke-miterlimit:4;stroke-dasharray:none;stroke-opacity:1"
       d="m 126.97613,113.69581 c -2.00427,5.53805 -1.64986,6.71877 0.15349,6.44959 2.46032,-0.87133 2.89815,-3.84883 -0.15349,-6.44959 z"
       id="path44401"
       sodipodi:nodetypes="ccc" />
    <path
       style="display:inline;fill:#52a230;fill-opacity:1;stroke:#000000;stroke-width:0.252272;stroke-linecap:round;stroke-linejoin:round;stroke-miterlimit:4;stroke-dasharray:none;stroke-opacity:1"
       d="m 105.46135,112.39886 c 0.0281,0.8882 -0.32671,1.40675 -0.85521,1.78753 -1.56056,1.12436 -1.08695,3.55457 1.06181,3.08719 3.00816,-1.2066 1.667,-3.45244 -0.2066,-4.87472 z"
       id="path44403"
       sodipodi:nodetypes="cscc" />
    <path
       style="display:inline;fill:#52a230;fill-opacity:1;stroke:#000000;stroke-width:0.252272;stroke-linecap:round;stroke-linejoin:round;stroke-miterlimit:4;stroke-dasharray:none;stroke-opacity:1"
       d="m 109.19833,93.015767 c -0.0102,0.580674 0.23239,1.080158 -0.41676,1.694233 -3.60486,3.410069 -2.67376,5.131279 -0.3488,8.07715 1.61477,-2.12347 4.42369,-3.803897 1.36905,-8.518656 -0.20649,-0.318721 -0.4103,-0.795888 -0.60349,-1.252727 z"
       id="path44405"
       sodipodi:nodetypes="cscsc" />
    <path
       style="display:inline;fill:#52a230;fill-opacity:1;stroke:#060000;stroke-width:0.252272;stroke-linecap:round;stroke-linejoin:round;stroke-miterlimit:4;stroke-dasharray:none;stroke-opacity:1"
       d="m 112.98424,95.759875 c 0.20716,0.760879 1.47852,2.321993 1.17927,3.285887 -0.43751,1.409168 1.62931,3.190528 3.01035,2.810788 0.0428,-2.767236 -0.021,-4.534992 -4.18962,-6.096675 z"
       id="path44407"
       sodipodi:nodetypes="cscc" />
    <path
       style="display:inline;fill:#52a230;fill-opacity:1;stroke:#000000;stroke-width:0.252272;stroke-linecap:round;stroke-linejoin:round;stroke-miterlimit:4;stroke-dasharray:none;stroke-opacity:1"
       d="m 123.56065,97.978081 c -0.64059,0.898127 -2.07531,1.531411 -2.68966,2.134049 -2.05357,2.01439 -1.2539,7.03255 1.15602,6.52533 2.63171,-1.88986 3.48829,-7.352553 1.53364,-8.659379 z"
       id="path44409"
       sodipodi:nodetypes="cscc" />
    <path
       style="display:inline;fill:#52a230;fill-opacity:1;stroke:#000000;stroke-width:0.252272;stroke-linecap:round;stroke-linejoin:round;stroke-miterlimit:4;stroke-dasharray:none;stroke-opacity:1"
       d="m 136.47677,96.423302 c -0.71957,0.499801 -1.53732,0.421645 -2.68538,0.448868 -2.57566,0.06108 -2.94331,2.239888 -1.92885,4.64525 2.86796,0.70079 4.56841,-0.53112 4.63241,-2.620123 0.0411,-1.342935 -0.36708,-1.310533 -0.0181,-2.473995 z"
       id="path44411"
       sodipodi:nodetypes="cscsc" />
    <path
       style="display:inline;fill:#52a230;fill-opacity:1;stroke:#000000;stroke-width:0.252272;stroke-linecap:round;stroke-linejoin:round;stroke-miterlimit:4;stroke-dasharray:none;stroke-opacity:1"
       d="m 124.80779,118.80736 c -0.093,-1.50033 0.14166,-6.03294 -3.08038,-5.7171 -2.04179,0.55252 -2.01359,4.36352 0.86838,4.50563 1.09446,0.054 1.60913,0.66941 2.212,1.21147 z"
       id="path44413"
       sodipodi:nodetypes="ccsc" />
    <path
       style="display:inline;fill:#52a230;fill-opacity:1;stroke:#000000;stroke-width:0.252272;stroke-linecap:round;stroke-linejoin:round;stroke-miterlimit:4;stroke-dasharray:none;stroke-opacity:1"
       d="m 132.30053,121.49958 c 0.56755,2.74378 2.74855,1.74265 3.44717,1.86482 0.55466,0.097 1.63025,0.17036 3.19013,0.74789 -0.76564,-1.34089 -4.96788,-6.47136 -6.6373,-2.61271 z"
       id="path44415"
       sodipodi:nodetypes="cscc" />
    <path
       style="display:inline;fill:#52a230;fill-opacity:1;stroke:#000000;stroke-width:0.3;stroke-linecap:round;stroke-linejoin:round;stroke-miterlimit:4;stroke-dasharray:none;stroke-opacity:1"
       d="m 106.09598,124.24636 c -1.50737,1.04136 -3.22851,0.78845 -4.14963,-0.69955 -0.35712,-0.5769 -0.92254,-0.71944 -1.41233,-1.0285 1.14653,-0.9334 5.04692,-1.97586 5.56196,1.72805 z"
       id="path44417"
       sodipodi:nodetypes="cscc" />
    <path
       style="display:inline;fill:#52a230;fill-opacity:1;stroke:#040000;stroke-width:0.252272;stroke-linecap:round;stroke-linejoin:round;stroke-miterlimit:4;stroke-dasharray:none;stroke-opacity:1"
       d="m 110.8757,113.33349 c 0.69987,0.55736 1.33564,1.16525 1.81717,1.90835 0.60468,0.93313 2.20556,1.96489 3.35958,0.50097 -0.46661,-2.96049 -2.72183,-4.00566 -5.17675,-2.40933 z"
       id="path44419"
       sodipodi:nodetypes="cscc" />
    <path
       style="display:inline;fill:#52a230;fill-opacity:1;stroke:#000000;stroke-width:0.252272;stroke-linecap:round;stroke-linejoin:round;stroke-miterlimit:4;stroke-dasharray:none;stroke-opacity:1"
       d="m 103.19354,105.40341 c 0.66751,0.58899 1.38282,1.18638 1.72057,1.81676 1.02062,1.90488 2.98018,1.2808 3.27072,0.22447 -0.54449,-0.84198 -0.59573,-1.66915 -1.84013,-2.52521 -0.66703,-0.45887 -1.19211,-0.35358 -1.66848,-0.0747 -0.42268,0.24741 -0.95412,0.40798 -1.48268,0.55872 z"
       id="path44421"
       sodipodi:nodetypes="cscssc" />
    <path
       style="display:inline;fill:#52a230;fill-opacity:1;stroke:#000000;stroke-width:0.252272;stroke-linecap:round;stroke-linejoin:round;stroke-miterlimit:4;stroke-dasharray:none;stroke-opacity:1"
       d="m 134.41581,124.05162 c -1.88794,2.99605 -3.26339,2.924 -6.55511,1.0209 -0.0426,-2.41838 2.03308,-2.59243 3.43283,-1.6463 1.32498,0.89559 2.0858,0.81448 3.12228,0.6254 z"
       id="path44423"
       sodipodi:nodetypes="ccsc" />
    <path
       style="display:inline;fill:#52a230;fill-opacity:1;stroke:#000000;stroke-width:0.252272;stroke-linecap:round;stroke-linejoin:round;stroke-miterlimit:4;stroke-dasharray:none;stroke-opacity:1"
       d="m 127.34427,133.95201 c -0.36819,-0.93521 -0.66201,-1.83131 0.15078,-3.06657 1.35038,-2.05232 -0.1764,-4.37964 -2.06476,-3.84945 -3.48117,3.6822 -0.45481,5.7987 1.91398,6.91602 z"
       id="path44425"
       sodipodi:nodetypes="cscc" />
    <path
       style="display:inline;fill:#52a230;fill-opacity:1;stroke:#030000;stroke-width:0.252272;stroke-linecap:round;stroke-linejoin:round;stroke-miterlimit:4;stroke-dasharray:none;stroke-opacity:1"
       d="m 99.64285,106.05398 c 3.75215,0.27898 4.84686,4.8831 2.4032,7.06788 -2.75093,-0.20611 -4.24617,-2.76487 -2.4032,-7.06788 z"
       id="path44427"
       sodipodi:nodetypes="ccc" />
    <path
       style="display:inline;fill:#52a230;fill-opacity:1;stroke:#090000;stroke-width:0.252272;stroke-linecap:round;stroke-linejoin:round;stroke-miterlimit:4;stroke-dasharray:none;stroke-opacity:1"
       d="m 133.45061,127.00282 c 0.56338,-3.33386 3.4582,-2.91999 5.09786,-0.95428 0.62407,0.74817 1.19704,1.3097 1.74329,1.78384 -1.38257,1.35609 -5.74073,3.99473 -6.84115,-0.82956 z"
       id="path44429"
       sodipodi:nodetypes="cscc" />
    <path
       style="display:inline;fill:#52a230;fill-opacity:1;stroke:#040000;stroke-width:0.252272;stroke-linecap:round;stroke-linejoin:round;stroke-miterlimit:4;stroke-dasharray:none;stroke-opacity:1"
       d="m 113.92838,108.3096 c -3.85406,-0.25021 -2.29587,-6.19844 -0.52022,-6.72688 1.98775,2.90809 1.58477,1.88405 2.58851,3.04995 0.53938,0.62652 0.53037,3.22036 -2.06829,3.67693 z"
       id="path44431"
       sodipodi:nodetypes="ccsc" />
    <path
       style="display:inline;fill:#52a230;fill-opacity:1;stroke:#000000;stroke-width:0.252272;stroke-linecap:round;stroke-linejoin:round;stroke-miterlimit:4;stroke-dasharray:none;stroke-opacity:1"
       d="m 105.96833,110.88713 c 0.98688,-0.22984 1.99564,-0.72235 3.17701,-1.70127 1.06849,-0.88539 3.24057,-0.61469 2.97692,1.74755 -1.61761,2.85489 -4.76685,1.66702 -6.15393,-0.0463 z"
       id="path44433"
       sodipodi:nodetypes="cscc" />
    <path
       style="display:inline;fill:#52a230;fill-opacity:1;stroke:#000000;stroke-width:0.3;stroke-linecap:round;stroke-linejoin:round;stroke-miterlimit:4;stroke-dasharray:none;stroke-opacity:1"
       d="m 101.93461,118.73113 c -1.82236,-2.8775 -5.45822,-2.62489 -7.16482,0.86608 2.32774,3.57478 7.0133,2.51276 7.16482,-0.86608 z"
       id="path44435"
       sodipodi:nodetypes="ccc" />
    <path
       style="display:inline;fill:#52a230;fill-opacity:1;stroke:#090000;stroke-width:0.252272;stroke-linecap:round;stroke-linejoin:round;stroke-miterlimit:4;stroke-dasharray:none;stroke-opacity:1"
       d="m 96.6634,109.26773 c -2.43893,-1.96173 -3.16718,-4.50439 -1.50464,-7.85892 0.3527,0.50936 0.69952,0.9671 1.37903,1.47663 2.234,1.67517 2.21377,4.46031 0.12561,6.38229 z"
       id="path44437"
       sodipodi:nodetypes="ccsc" />
    <path
       style="display:inline;fill:#52a230;fill-opacity:1;stroke:#0d0000;stroke-width:0.232014;stroke-linecap:round;stroke-linejoin:round;stroke-miterlimit:4;stroke-dasharray:none;stroke-opacity:1"
       d="m 131.24621,117.12228 c 2.71636,0.25985 3.084,-2.95651 0.35758,-5.69039 -1.77421,1.17147 -4.03932,5.33821 -0.35758,5.69039 z"
       id="path44439"
       sodipodi:nodetypes="scs" />
    <path
       style="display:inline;fill:#52a230;fill-opacity:1;stroke:#030000;stroke-width:0.252272;stroke-linecap:round;stroke-linejoin:round;stroke-miterlimit:4;stroke-dasharray:none;stroke-opacity:1"
       d="m 134.95003,113.80491 c -3.38359,-2.07476 0.35292,-4.53504 2.90411,-5.49762 -0.44975,0.6575 -0.86465,1.44866 -0.94112,2.35242 -0.074,0.87485 -0.13988,2.35166 -1.96299,3.1452 z"
       id="path44441"
       sodipodi:nodetypes="ccsc" />
    <path
       style="display:inline;fill:none;stroke:#000000;stroke-width:0.2;stroke-linecap:round;stroke-linejoin:round;stroke-miterlimit:4;stroke-dasharray:none;stroke-opacity:1"
       d="m 118.29822,103.51569 c 0,0 -0.71354,-1.13231 -1.12436,-1.65914 -1.84723,-2.368882 -1.28016,-3.380397 -2.49056,-4.304711"
       id="path51319"
       sodipodi:nodetypes="csc" />
    <path
       style="display:inline;fill:#373418;fill-opacity:1;stroke:#000000;stroke-width:0.252272;stroke-linecap:butt;stroke-linejoin:miter;stroke-miterlimit:4;stroke-dasharray:none;stroke-opacity:1"
       d="m 114.81223,152.18013 c 1.66048,-1.17676 1.81646,-23.19292 1.2517,-23.87519 -3.67677,-4.4418 -8.81514,-2.7128 -14.12559,-1.7413 2.87573,-1.79764 3.32678,-1.48444 8.01113,-2.3458 -5.80263,-4.5449 -9.05022,-9.24826 -12.87195,-13.84457 5.65355,5.38401 18.5093,19.51739 19.87027,13.03525 l -0.0513,-9.95643 c -0.34558,-1.4282 -7.18513,-4.8659 -10.8996,-11.45695 13.72286,14.61221 12.09,7.81775 12.35517,-3.750226 1.50878,19.126646 -0.59831,11.416186 12.88641,3.723676 -10.65922,9.78738 -11.69763,9.98197 -11.62972,12.55255 l 0.23495,8.89394 c 0.0328,1.24191 1.14554,1.44476 2.87927,0.75776 4.65216,-2.30945 10.09459,-5.87344 14.73659,-12.04865 -1.25584,3.43828 -5.23863,7.80037 -11.61202,11.62332 -0.50959,0.29241 -0.82947,1.11318 0.24309,1.51118 2.75425,1.022 2.63922,1.14064 6.06856,1.74498 -3.22191,-0.0621 -2.70973,-0.22273 -7.56345,-1.48868 -1.87469,-0.48896 -4.23309,0.58303 -4.27967,2.90247 0.12323,7.60609 0.19846,20.05633 1.17578,22.69425 z"
       id="path7041"
       sodipodi:nodetypes="csccccccccsscccscsccc" />
    <path
       style="display:inline;fill:none;stroke:#000000;stroke-width:0.2;stroke-linecap:round;stroke-linejoin:round;stroke-miterlimit:4;stroke-dasharray:none;stroke-opacity:1"
       d="m 104.48357,126.06133 c 0,0 -0.266,1.28272 -1.23193,2.00538 -3.02427,2.26262 -4.303602,4.42339 -4.303602,4.42339"
       id="path10735"
       sodipodi:nodetypes="csc" />
    <path
       style="display:inline;fill:none;stroke:#000000;stroke-width:0.2;stroke-linecap:round;stroke-linejoin:round;stroke-miterlimit:4;stroke-dasharray:none;stroke-opacity:1"
       d="m 101.93834,126.56364 c 0,0 -0.92739,0.028 -1.38651,-0.0257 -2.47994,-0.2901 -6.033895,-1.26657 -6.033895,-1.26657"
       id="path10739"
       sodipodi:nodetypes="csc" />
    <path
       style="display:inline;fill:none;stroke:#000000;stroke-width:0.2;stroke-linecap:round;stroke-linejoin:round;stroke-miterlimit:4;stroke-dasharray:none;stroke-opacity:1"
       d="m 107.02403,124.71136 c 0,0 -0.63425,-0.28224 -0.92805,-0.465 -1.35615,-0.8436 -3.81104,-1.57194 -3.81104,-1.57194"
       id="path10741"
       sodipodi:nodetypes="csc" />
    <path
       style="display:inline;fill:none;stroke:#000000;stroke-width:0.2;stroke-linecap:round;stroke-linejoin:round;stroke-miterlimit:4;stroke-dasharray:none;stroke-opacity:1"
       d="m 104.33703,119.05479 c 0,0 -1.59439,-0.32762 -2.40242,-0.32366 -1.77481,0.009 -5.269598,0.76254 -5.269598,0.76254"
       id="path10743"
       sodipodi:nodetypes="csc" />
    <path
       style="display:inline;fill:none;stroke:#000000;stroke-width:0.2;stroke-linecap:round;stroke-linejoin:round;stroke-miterlimit:4;stroke-dasharray:none;stroke-opacity:1"
       d="m 99.66289,113.56025 c 0,0 -1.277365,-0.0242 -1.89091,0.12616 -2.101384,0.51504 -3.306574,0.874 -6.344986,0.61122"
       id="path10745"
       sodipodi:nodetypes="csc" />
    <path
       style="display:inline;fill:none;stroke:#000000;stroke-width:0.2;stroke-linecap:round;stroke-linejoin:round;stroke-miterlimit:4;stroke-dasharray:none;stroke-opacity:1"
       d="m 97.07752,110.37327 c 0,0 -0.291218,-0.73171 -0.41412,-1.10554 -0.657052,-1.99858 -1.090253,-5.58799 -1.090253,-5.58799"
       id="path10747"
       sodipodi:nodetypes="csc" />
    <path
       style="display:inline;fill:none;stroke:#000000;stroke-width:0.2;stroke-linecap:round;stroke-linejoin:round;stroke-miterlimit:4;stroke-dasharray:none;stroke-opacity:1"
       d="m 101.94577,115.26616 c 0,0 0.10499,-1.42877 0.10028,-2.1443 -0.0134,-2.03071 -0.37535,-4.07713 -1.50903,-5.59354"
       id="path10749"
       sodipodi:nodetypes="csc" />
    <path
       style="display:inline;fill:none;stroke:#000000;stroke-width:0.2;stroke-linecap:round;stroke-linejoin:round;stroke-miterlimit:4;stroke-dasharray:none;stroke-opacity:1"
       d="m 105.47269,118.74269 c 0,0 0.0796,-0.98884 0.19526,-1.46911 0.24982,-1.03697 0.32658,-2.20277 0.14098,-3.16119"
       id="path10751"
       sodipodi:nodetypes="csc" />
    <path
       style="display:inline;fill:none;stroke:#000000;stroke-width:0.2;stroke-linecap:round;stroke-linejoin:round;stroke-miterlimit:4;stroke-dasharray:none;stroke-opacity:1"
       d="m 108.68053,121.60999 c 0,0 0.0135,-0.75415 0.0267,-1.13104 0.0787,-2.2501 0.56928,-3.49346 1.78863,-4.31743"
       id="path10753"
       sodipodi:nodetypes="csc" />
    <path
       style="display:inline;fill:none;stroke:#000000;stroke-width:0.2;stroke-linecap:round;stroke-linejoin:round;stroke-miterlimit:4;stroke-dasharray:none;stroke-opacity:1"
       d="m 113.05343,124.52357 c 0,0 -0.0868,-0.95011 -0.18884,-1.41483 -0.26541,-1.20841 0.0724,-2.61286 0.6492,-3.48957"
       id="path10755"
       sodipodi:nodetypes="csc" />
    <path
       style="display:inline;fill:none;stroke:#000000;stroke-width:0.2;stroke-linecap:round;stroke-linejoin:round;stroke-miterlimit:4;stroke-dasharray:none;stroke-opacity:1"
       d="m 116.91488,117.02054 c 0,0 -0.52827,-0.88737 -0.86243,-1.27773 -1.39378,-1.62819 -3.74525,-2.18652 -3.74525,-2.18652"
       id="path10757"
       sodipodi:nodetypes="csc" />
    <path
       style="display:inline;fill:none;stroke:#000000;stroke-width:0.2;stroke-linecap:round;stroke-linejoin:round;stroke-miterlimit:4;stroke-dasharray:none;stroke-opacity:1"
       d="m 113.99343,110.71104 c 0,0 -1.25679,0.0918 -1.87117,0.22237 -1.14282,0.24293 -3.81498,0.63203 -4.54851,0.13156"
       id="path10759"
       sodipodi:nodetypes="csc" />
    <path
       style="display:inline;fill:none;stroke:#000000;stroke-width:0.2;stroke-linecap:round;stroke-linejoin:round;stroke-miterlimit:4;stroke-dasharray:none;stroke-opacity:1"
       d="m 110.33926,107.52115 c 0,0 -1.4401,0.002 -2.15443,-0.0765 -2.21678,-0.24257 -2.36182,-1.52537 -3.45688,-1.62929"
       id="path10761"
       sodipodi:nodetypes="csc" />
    <path
       style="display:inline;fill:none;stroke:#000000;stroke-width:0.2;stroke-linecap:round;stroke-linejoin:round;stroke-miterlimit:4;stroke-dasharray:none;stroke-opacity:1"
       d="m 105.99689,101.99514 c 0,0 -0.47164,-0.11236 -0.64614,-0.26678 -2.21774,-1.96261 -3.49129,-2.296044 -3.49129,-2.296044"
       id="path10763"
       sodipodi:nodetypes="csc" />
    <path
       style="display:inline;fill:none;stroke:#000000;stroke-width:0.2;stroke-linecap:round;stroke-linejoin:round;stroke-miterlimit:4;stroke-dasharray:none;stroke-opacity:1"
       d="m 108.47184,104.56655 c 0,0 -0.0252,-1.18628 -0.039,-1.7794 -0.11359,-4.900694 0.79826,-6.781544 0.79826,-6.781544"
       id="path10765"
       sodipodi:nodetypes="csc" />
    <path
       style="display:inline;fill:none;stroke:#000000;stroke-width:0.2;stroke-linecap:round;stroke-linejoin:round;stroke-miterlimit:4;stroke-dasharray:none;stroke-opacity:1"
       d="m 113.84553,109.31404 c 0,0 0.0478,-0.67033 0.0829,-1.00444 0.25521,-2.42711 -0.70707,-3.53869 -0.4978,-4.99403"
       id="path10767"
       sodipodi:nodetypes="csc" />
    <path
       style="display:inline;fill:none;stroke:#000000;stroke-width:0.2;stroke-linecap:round;stroke-linejoin:round;stroke-miterlimit:4;stroke-dasharray:none;stroke-opacity:1"
       d="m 118.35206,98.244914 c 0,0 -0.0644,-0.535227 -0.006,-0.793058 0.73976,-3.266416 -0.0489,-4.142455 0.20513,-5.746691"
       id="path10769"
       sodipodi:nodetypes="csc" />
    <path
       style="display:inline;fill:none;stroke:#000000;stroke-width:0.2;stroke-linecap:round;stroke-linejoin:round;stroke-miterlimit:4;stroke-dasharray:none;stroke-opacity:1"
       d="m 122.29592,108.62156 c 0,0 -0.19609,-1.32067 -0.26891,-1.9841 -0.52174,-4.75342 1.30257,-4.40849 1.12685,-6.828989"
       id="path10771"
       sodipodi:nodetypes="csc" />
    <path
       style="display:inline;fill:none;stroke:#000000;stroke-width:0.2;stroke-linecap:round;stroke-linejoin:round;stroke-miterlimit:4;stroke-dasharray:none;stroke-opacity:1"
       d="m 126.74659,104.89659 c 0,0 0.25042,-1.2246 0.33171,-1.84373 0.56792,-4.325329 1.61926,-5.578586 1.61926,-5.578586"
       id="path10773"
       sodipodi:nodetypes="csc" />
    <path
       style="display:inline;fill:none;stroke:#000000;stroke-width:0.2;stroke-linecap:round;stroke-linejoin:round;stroke-miterlimit:4;stroke-dasharray:none;stroke-opacity:1"
       d="m 131.23847,101.96859 c 0,0 0.42096,-0.29421 0.62407,-0.45117 2.94312,-2.274412 3.47021,-3.523262 3.47021,-3.523262"
       id="path10775"
       sodipodi:nodetypes="csc" />
    <path
       style="display:inline;fill:none;stroke:#000000;stroke-width:0.2;stroke-linecap:round;stroke-linejoin:round;stroke-miterlimit:4;stroke-dasharray:none;stroke-opacity:1"
       d="m 128.23071,104.70295 c 0,0 1.40177,0.0948 2.02696,0.38069 3.30253,1.51036 5.14564,1.59426 5.14564,1.59426"
       id="path10777"
       sodipodi:nodetypes="csc" />
    <path
       style="display:inline;fill:none;stroke:#000000;stroke-width:0.2;stroke-linecap:round;stroke-linejoin:round;stroke-miterlimit:4;stroke-dasharray:none;stroke-opacity:1"
       d="m 124.26266,108.2392 c 0,0 0.99068,0.3712 1.41234,0.6797 1.44016,1.05368 1.04812,1.81622 2.41461,3.00471"
       id="path10779"
       sodipodi:nodetypes="csc" />
    <path
       style="display:inline;fill:none;stroke:#000000;stroke-width:0.2;stroke-linecap:round;stroke-linejoin:round;stroke-miterlimit:4;stroke-dasharray:none;stroke-opacity:1"
       d="m 120.57552,111.8321 c 0,0 0.82964,0.78968 1.15189,1.25816 0.77108,1.12098 1.82569,3.65066 1.82569,3.65066"
       id="path10781"
       sodipodi:nodetypes="csc" />
    <path
       style="display:inline;fill:none;stroke:#000000;stroke-width:0.2;stroke-linecap:round;stroke-linejoin:round;stroke-miterlimit:4;stroke-dasharray:none;stroke-opacity:1"
       d="m 125.50082,122.68145 c 0,0 -0.59509,-0.22948 -0.8542,-0.4101 -1.59066,-1.1088 -0.75861,-1.45985 -2.33828,-2.43654"
       id="path10783"
       sodipodi:nodetypes="csc" />
    <path
       style="display:inline;fill:none;stroke:#000000;stroke-width:0.2;stroke-linecap:round;stroke-linejoin:round;stroke-miterlimit:4;stroke-dasharray:none;stroke-opacity:1"
       d="m 127.66975,121.33541 c 0,0 -0.63326,-0.76446 -0.54013,-1.19001 0.56655,-2.58873 0.26925,-4.31812 0.26925,-4.31812"
       id="path10785"
       sodipodi:nodetypes="csc" />
    <path
       style="display:inline;fill:none;stroke:#000000;stroke-width:0.2;stroke-linecap:round;stroke-linejoin:round;stroke-miterlimit:4;stroke-dasharray:none;stroke-opacity:1"
       d="m 131.44354,118.50681 c 0,0 -0.18159,-0.91862 -0.19733,-1.38453 -0.0489,-1.44826 0.32161,-4.33533 0.32161,-4.33533"
       id="path10787"
       sodipodi:nodetypes="csc" />
    <path
       style="display:inline;fill:none;stroke:#000000;stroke-width:0.2;stroke-linecap:round;stroke-linejoin:round;stroke-miterlimit:4;stroke-dasharray:none;stroke-opacity:1"
       d="m 135.08585,114.9932 c 0,0 -0.13276,-0.78963 -0.13582,-1.18829 -0.0207,-2.69807 1.43499,-4.20618 1.43499,-4.20618"
       id="path10789"
       sodipodi:nodetypes="csc" />
    <path
       style="display:inline;fill:none;stroke:#000000;stroke-width:0.2;stroke-linecap:round;stroke-linejoin:round;stroke-miterlimit:4;stroke-dasharray:none;stroke-opacity:1"
       d="m 137.45957,112.12419 c 0,0 0.33719,-0.7789 0.64552,-1.05077 1.49553,-1.31867 3.41836,-1.48201 3.41836,-1.48201"
       id="path10791"
       sodipodi:nodetypes="csc" />
    <path
       style="display:inline;fill:none;stroke:#000000;stroke-width:0.2;stroke-linecap:round;stroke-linejoin:round;stroke-miterlimit:4;stroke-dasharray:none;stroke-opacity:1"
       d="m 136.16158,114.62963 c 0,0 1.08576,-0.0661 1.60727,-0.20691 2.2035,-0.59478 3.5163,-0.43718 5.17738,0.0238"
       id="path10793"
       sodipodi:nodetypes="csc" />
    <path
       style="display:inline;fill:none;stroke:#000000;stroke-width:0.2;stroke-linecap:round;stroke-linejoin:round;stroke-miterlimit:4;stroke-dasharray:none;stroke-opacity:1"
       d="m 133.96194,117.38414 c 0,0 1.17305,0.21938 1.69992,0.48279 2.95916,1.47946 6.69889,2.39597 6.69889,2.39597"
       id="path10795"
       sodipodi:nodetypes="csc" />
    <path
       style="display:inline;fill:none;stroke:#000000;stroke-width:0.2;stroke-linecap:round;stroke-linejoin:round;stroke-miterlimit:4;stroke-dasharray:none;stroke-opacity:1"
       d="m 126.41018,125.37798 c 0,0 1.03238,-0.0422 1.45052,-0.30546 2.3051,-1.45124 3.09391,0.62493 5.04477,-0.21987"
       id="path10797"
       sodipodi:nodetypes="csc" />
    <path
       style="display:inline;fill:none;stroke:#000000;stroke-width:0.2;stroke-linecap:round;stroke-linejoin:round;stroke-miterlimit:4;stroke-dasharray:none;stroke-opacity:1"
       d="m 128.96042,126.79733 c 0,0 0.26816,1.03677 0.68006,1.30088 1.78344,1.14354 3.18723,3.58314 3.18723,3.58314"
       id="path10801"
       sodipodi:nodetypes="csc" />
    <path
       style="display:inline;fill:none;stroke:#000000;stroke-width:0.2;stroke-linecap:round;stroke-linejoin:round;stroke-miterlimit:4;stroke-dasharray:none;stroke-opacity:1"
       d="m 132.1592,127.00367 c 0,0 0.86169,0.0248 1.29141,-6.9e-4 3.01989,-0.17906 5.08973,0.72934 5.08973,0.72934"
       id="path10803"
       sodipodi:nodetypes="csc" />
    <path
       style="display:inline;fill:none;stroke:#000000;stroke-width:0.2;stroke-linecap:round;stroke-linejoin:round;stroke-miterlimit:4;stroke-dasharray:none;stroke-opacity:1"
       d="m 124.59308,125.51429 c 0,0 0.53992,1.02493 0.83721,1.5217 1.3447,2.24697 -0.24687,3.34623 0.80265,5.20442"
       id="path10805"
       sodipodi:nodetypes="csc" />
    <path
       style="display:inline;fill:none;stroke:#000000;stroke-width:0.2;stroke-linecap:round;stroke-linejoin:round;stroke-miterlimit:4;stroke-dasharray:none;stroke-opacity:1"
       d="m 130.63928,120.43534 c 0,0 1.00493,1.02266 1.66125,1.06424 2.98076,0.18884 4.70713,1.30581 4.70713,1.30581"
       id="path3973"
       sodipodi:nodetypes="csc" />
    <path
       style="display:inline;fill:none;stroke:#000000;stroke-width:0.2;stroke-linecap:round;stroke-linejoin:round;stroke-miterlimit:4;stroke-dasharray:none;stroke-opacity:1"
       d="m 110.00005,125.38339 -0.93461,1.41605 c -1.13699,1.72269 -1.41823,3.9077 -0.94607,5.17347"
       id="path10733"
       sodipodi:nodetypes="csc" />
  </g>
  <g
     inkscape:label="Landschaft"
     inkscape:groupmode="layer"
     id="layer1"
     style="display:inline"
     transform="translate(-25.952896,-84.696002)">
    <path
       style="fill:#52a230;fill-opacity:1;stroke:#000000;stroke-width:0;stroke-linecap:butt;stroke-linejoin:miter;stroke-miterlimit:4;stroke-dasharray:none;stroke-opacity:1"
       d="m 31.244563,176.68322 c 0,0 27.858078,-29.55988 75.613907,-15.24258 41.42501,12.41931 57.26257,-0.73133 57.26257,-0.73133 0,0 -7.90059,34.80227 -68.841448,17.16072 -49.794639,-14.41487 -64.035029,-1.18681 -64.035029,-1.18681 z"
       id="path272"
       sodipodi:nodetypes="cscsc" />
    <path
       style="fill:#1c5c00;fill-opacity:1;stroke:#000000;stroke-width:0;stroke-linecap:butt;stroke-linejoin:miter;stroke-miterlimit:4;stroke-dasharray:none;stroke-opacity:1"
       d="m 96.665034,156.8807 c 20.586216,-8.73028 45.392256,-8.61728 63.328436,0.59287 M 96.665034,156.8807 c 34.864966,8.03427 55.162546,6.90403 63.328436,0.59287"
       id="path1939"
       sodipodi:nodetypes="cccc" />
  </g>
</svg>
